<svg width="24" height="24" viewBox="0 0 24 24" fill="none" xmlns="http://www.w3.org/2000/svg">
<path d="M17.3122 3.8964C17.6287 3.86711 17.8407 3.88235 18.1273 4.0249C18.7765 4.34781 19.062 5.29281 18.6027 5.89196C18.2968 6.29099 17.7345 6.79921 17.3464 7.19046L13.9996 10.5362L8.54509 15.9905L7.09728 17.4378C6.76583 17.773 6.4344 18.1148 6.09201 18.439C5.88545 18.6346 5.72572 18.717 5.45453 18.7932C5.42885 18.8002 5.40287 18.8061 5.37668 18.8108C4.40825 18.9813 3.58658 17.9669 3.96902 17.0163C4.08066 16.7389 4.50981 16.3423 4.73274 16.1205L5.53033 15.326L8.47756 12.3799L14.134 6.72132L15.6888 5.16609C15.9856 4.86734 16.2865 4.55503 16.5939 4.26784C16.8199 4.05672 17.0054 3.94586 17.3122 3.8964Z" fill="white"/>
<path d="M18.7525 11.037C19.4244 10.9772 20.0655 11.5128 20.1099 12.1882C20.1376 12.6091 20.0566 12.9046 19.7584 13.2145C19.3221 13.6679 18.8724 14.109 18.4273 14.5541L15.7981 17.1834L14.0222 18.9597C13.7631 19.2189 13.5057 19.4808 13.2418 19.7352C12.9985 19.9697 12.7741 20.0883 12.4339 20.109C12.0424 20.1166 11.8171 20.0773 11.5043 19.8294C10.9226 19.3683 10.8689 18.4795 11.3716 17.9413C11.6892 17.6013 12.0269 17.2808 12.3567 16.949C13.1035 16.193 13.855 15.4416 14.611 14.6948C15.3795 13.9177 16.1521 13.1448 16.929 12.376C17.2756 12.0302 17.6171 11.6638 17.9797 11.3347C18.2107 11.1251 18.4472 11.063 18.7525 11.037Z" fill="white"/>
</svg>
