<svg width="24" height="24" viewBox="0 0 24 24" fill="none" xmlns="http://www.w3.org/2000/svg">
<g clip-path="url(#clip0_383_3643)">
<path d="M12 4.74414C8.7984 4.74414 6.82096 6.34492 5.97349 9.54648C7.19762 7.9457 8.61007 7.38072 10.2109 7.75738C11.1525 7.9457 11.7175 8.60485 12.4708 9.35816C13.6949 10.5823 15.0132 11.9947 18.0264 11.9947C21.228 11.9947 23.2054 10.394 24.0529 7.19239C22.8288 8.79317 21.4163 9.35816 19.8155 8.9815C18.8739 8.69901 18.3089 8.03987 17.5556 7.28656C16.3315 6.15659 15.0132 4.74414 12 4.74414ZM5.97349 11.9947C2.77193 11.9947 0.794494 13.5955 -0.0529785 16.7971C1.17115 15.1963 2.5836 14.6313 4.18438 15.008C5.12602 15.1963 5.691 15.8554 6.44431 16.6088C7.66844 17.8329 8.98673 19.2453 12 19.2453C15.2015 19.2453 17.179 17.6446 18.0264 14.3488C16.8023 15.9496 15.3898 16.6088 13.7891 16.2321C12.8474 15.9496 12.2825 15.2905 11.5291 14.5372C10.305 13.4072 8.98673 11.9947 5.97349 11.9947Z" fill="url(#paint0_linear_383_3643)"/>
</g>
<defs>
<linearGradient id="paint0_linear_383_3643" x1="-0.727943" y1="9.38452" x2="20.1168" y2="21.3843" gradientUnits="userSpaceOnUse">
<stop stop-color="#2298BD"/>
<stop offset="1" stop-color="#0ED7B5"/>
</linearGradient>
<clipPath id="clip0_383_3643">
<rect width="24" height="24" fill="white"/>
</clipPath>
</defs>
</svg>
