<svg width="609" height="255" viewBox="0 0 609 255" fill="none" xmlns="http://www.w3.org/2000/svg">
<rect width="609" height="255" fill="white"/>
<g clip-path="url(#clip0_395_4189)">
<rect x="17.6074" y="19.0939" width="201.586" height="201.586" rx="40" fill="#1E1E1E"/>
<rect x="17.6074" y="19.0939" width="201.586" height="201.586" rx="40" stroke="white" stroke-width="8"/>
<path d="M42.6074 69.3167C42.6074 54.8342 54.3477 43.0939 68.8302 43.0939H80.5596C86.0824 43.0939 90.5596 47.5711 90.5596 53.0939V81.4551C90.5596 86.9779 86.0825 91.4551 80.5596 91.4551H58.6074C49.7709 91.4551 42.6074 84.2916 42.6074 75.4551V69.3167Z" fill="#FF3737"/>
<path d="M101.56 53.0939C101.56 47.5711 106.037 43.0939 111.56 43.0939L171.331 43.0939C184.686 43.0939 195.512 53.9199 195.512 67.2745C195.512 80.6291 184.686 91.4551 171.331 91.4551H111.56C106.037 91.4551 101.56 86.9779 101.56 81.4551V53.0939Z" fill="#FE7237"/>
<rect x="42.6074" y="102.063" width="58.905" height="9.98992" rx="4.99496" fill="#884FFF"/>
<rect x="42.6074" y="118.053" width="70.92" height="9.98992" rx="4.99496" fill="#884FFF"/>
<rect x="42.6074" y="134.043" width="70.92" height="9.98992" rx="4.99496" fill="#884FFF"/>
<path d="M134.527 103.955H179.812C184.506 103.955 188.312 107.761 188.312 112.455V133.641C188.311 138.335 184.506 142.141 179.812 142.141H134.527C129.833 142.141 126.027 138.335 126.027 133.641V112.455C126.027 107.761 129.833 103.955 134.527 103.955Z" fill="#00B6FF" stroke="#00B6FF" stroke-width="9"/>
<path d="M42.6074 167.64C42.6074 160.461 48.4277 154.64 55.6074 154.64H122.664C128.187 154.64 132.664 159.118 132.664 164.64V186.408C132.664 191.93 128.187 196.408 122.664 196.408H69.6075C54.6958 196.408 42.6074 184.319 42.6074 169.408V167.64Z" fill="#22BC69"/>
<path d="M143.664 164.64C143.664 159.118 148.142 154.64 153.664 154.64H182.566C189.746 154.64 195.566 160.461 195.566 167.64V169.408C195.566 184.319 183.478 196.408 168.566 196.408H153.664C148.142 196.408 143.664 191.93 143.664 186.408V164.64Z" fill="#24CB71"/>
<g filter="url(#filter0_d_395_4189)">
<path d="M191.991 230.467L154.98 169.256C154.04 167.701 155.494 165.799 157.241 166.298L224.63 185.54C230.887 187.326 231.534 195.937 225.615 198.639L209.842 205.839C209.552 205.972 209.342 206.235 209.278 206.548L204.839 228.248C203.563 234.49 195.288 235.919 191.991 230.467Z" fill="white"/>
<path d="M191.991 230.467L154.98 169.256C154.04 167.701 155.494 165.799 157.241 166.298L224.63 185.54C230.887 187.326 231.534 195.937 225.615 198.639L209.842 205.839C209.552 205.972 209.342 206.235 209.278 206.548L204.839 228.248C203.563 234.49 195.288 235.919 191.991 230.467Z" stroke="#1E1E1E" stroke-width="8"/>
</g>
</g>
<path d="M261.694 208.834C261.597 208.257 261.79 205.661 261.886 204.315C262.078 203.161 262.943 200.95 263.04 200.373C263.232 199.7 263.52 197.97 263.616 196.912C263.713 195.951 264.193 194.316 264.289 193.643C264.289 192.778 268.424 176.049 268.52 175.184C268.52 174.222 269.193 172.107 269.193 171.53C269.193 170.953 269.481 168.55 269.481 168.55C269.481 168.55 270.154 166.819 270.25 166.339C270.443 165.666 271.5 162.685 271.885 162.204C273.038 160.762 276.5 157.109 280.249 158.455C280.249 158.455 282.364 161.243 282.268 161.628C282.172 162.012 282.749 163.55 282.749 163.55L283.518 164.704C284.095 166.242 283.518 171.915 282.557 173.549C282.076 174.415 277.749 193.066 277.557 193.643C275.923 196.335 276.5 200.565 275.25 203.354C275.057 204.027 274.673 206.334 274.481 206.911C274.192 207.584 273.904 209.795 273.615 210.276C273.135 210.853 271.789 212.776 271.5 213.256C270.635 214.891 269.577 217.583 267.847 218.448C267.174 218.929 266.02 219.89 265.443 220.082C264.77 220.179 263.713 220.755 263.424 220.371C263.136 219.89 262.559 219.506 262.078 219.121C261.79 218.736 261.117 218.448 260.924 217.871C260.732 217.39 260.732 215.852 260.732 215.852C261.405 213.449 261.117 211.141 261.694 208.834ZM322.074 158.551C323.228 159.993 324.093 159.897 324.189 162.493C323.805 164.32 323.132 166.146 323.036 166.819C322.843 167.3 322.267 169.127 322.074 170.28C321.978 171.434 321.594 172.876 321.401 173.934C321.113 175.184 320.632 176.145 320.344 177.491C319.671 180.568 318.036 183.74 317.363 186.817C316.786 189.028 316.21 191.047 315.729 193.355C315.633 193.932 314.671 196.624 314.575 197.008C313.998 199.412 313.037 201.911 312.556 204.603C312.652 206.526 311.979 208.834 311.499 210.949C311.306 211.526 310.729 213.545 310.729 213.545L309.48 216.717C308.71 218.448 307.653 219.698 306.98 219.89C306.307 220.179 305.249 220.467 304.576 220.467C302.942 220.467 301.884 219.506 301.211 218.16C301.115 217.775 300.25 216.525 299.673 214.891C299.673 214.891 299.192 213.545 299.096 212.968C298.808 210.949 297.942 208.93 297.366 207.007L296.596 203.642L295.635 199.892L295.058 198.643C294.289 196.72 294.001 194.989 294.001 194.989C293.424 197.585 292.847 199.989 292.27 202.681C291.982 203.642 290.732 210.18 290.636 210.949C290.443 211.622 289.29 216.814 289.29 217.39C289.482 218.448 288.232 219.698 287.944 220.755C287.463 222.678 282.271 224.217 280.829 221.428L279.579 219.506C279.579 219.506 278.906 218.448 278.81 218.063C278.81 217.583 278.233 215.852 278.329 215.179C278.522 214.602 278.425 213.256 278.618 212.583C278.81 211.814 278.81 209.891 279.002 208.93C279.195 208.161 279.195 206.238 279.291 205.276C279.483 204.315 280.06 201.623 280.252 200.662C280.444 199.892 280.733 197.393 280.829 196.912C281.598 193.932 282.463 191.624 282.656 188.163C282.752 187.394 283.425 184.798 283.809 184.029C284.194 183.067 284.579 180.76 284.867 179.895C286.117 177.107 286.021 173.838 287.271 170.857C287.655 169.127 288.328 167.3 289.097 165.666C289.29 165.281 289.963 163.262 290.732 162.685C291.789 161.628 294.193 160.858 296.789 162.685C296.789 162.685 297.558 163.55 298.135 163.935C299.096 164.896 299.769 165.858 301.115 169.992L300.827 175.472C300.827 175.472 301.115 178.164 301.211 178.549C301.211 179.126 301.98 184.51 302.173 185.086C302.077 185.759 302.173 187.971 302.173 187.971L303.134 192.393C303.134 192.393 305.153 185.471 305.249 184.99C305.345 184.51 305.922 182.779 306.115 182.01C306.307 181.337 306.98 179.414 306.98 178.549C307.076 177.876 307.653 175.857 307.845 175.088C307.941 174.415 309.095 170.569 309.191 169.896C309.383 169.127 310.056 166.627 310.249 165.858C310.441 165.185 310.633 163.647 310.729 163.262C311.114 161.531 311.499 157.013 314.287 157.013C315.729 156.628 317.171 157.013 318.613 157.013C319.094 157.013 319.478 157.301 319.863 157.301C320.344 157.397 320.536 157.686 320.921 157.878C321.305 157.974 322.074 158.551 322.074 158.551ZM352.555 196.72C353.613 200.277 350.825 203.161 350.44 204.507C350.248 205.373 349.094 206.911 348.517 207.68C348.037 208.161 347.556 208.834 347.267 209.122C347.171 209.314 346.306 210.276 346.018 210.564C344.575 212.199 342.845 213.256 341.21 214.891C340.73 215.564 338.711 216.91 337.942 217.198C335.826 218.16 334.48 219.217 334.096 219.506C332.558 220.467 330.923 221.044 329.193 221.236C328.231 221.525 326.981 221.813 325.924 222.101C324.193 222.39 323.136 222.198 321.501 221.813C319.674 220.948 317.944 220.948 316.79 219.217C316.502 218.833 316.021 218.063 315.444 216.237C314.483 212.199 316.694 212.199 318.136 212.295C319.578 212.487 321.02 211.622 322.559 211.622C323.039 211.622 329 209.603 329.385 209.314C330.058 209.122 331.019 208.449 331.5 208.161C332.077 207.872 333.231 207.007 333.615 206.815C334.48 206.334 336.884 204.315 337.845 203.546C338.518 203.161 339.384 202.2 339.672 201.719C340.153 201.335 340.922 200.373 341.403 199.989C341.883 199.7 342.749 198.354 343.518 196.335H341.98C341.98 196.335 338.999 196.431 338.711 196.431C338.326 196.431 337.557 196.431 336.98 196.431C335.057 196.431 332.942 196.624 330.731 196.047L326.212 194.316C326.212 194.316 325.635 193.739 325.347 193.643C324.578 193.355 323.905 192.393 323.328 191.816C322.559 191.432 320.828 190.086 320.54 189.028C320.444 188.644 320.155 188.163 320.155 185.663C320.347 183.644 321.117 181.625 321.982 179.51C322.174 179.029 322.655 178.164 322.847 177.587C323.328 176.53 324.289 175.088 325.058 174.126C325.347 173.742 326.02 172.876 326.404 172.588C327.366 171.242 328.231 170.761 329.481 169.319C332.558 166.819 334.577 163.262 338.326 161.051C339.961 159.705 341.499 158.647 343.326 157.205C344.287 156.34 346.594 155.282 347.844 154.705C349.383 154.225 350.056 154.321 350.44 154.417C350.632 154.417 351.498 154.994 351.978 155.282C352.363 155.571 353.901 156.051 354.382 156.628C354.767 157.013 355.632 157.974 355.92 158.263C356.209 158.551 356.593 159.032 356.882 159.32C357.266 159.897 357.555 160.858 357.17 162.493C356.978 163.358 356.016 164.32 355.151 165.281C355.055 165.666 354.863 166.146 353.613 166.531L351.017 166.915C348.71 168.934 345.729 169.896 344.191 171.626C341.114 175.088 334.48 179.51 333.038 184.317L332.269 186.336L335.057 186.432C335.057 186.432 336.115 186.144 336.403 186.144C336.884 186.144 338.134 185.759 338.518 185.759C338.903 185.759 340.153 185.375 340.634 185.375C342.46 184.99 345.825 184.029 347.364 185.375C348.517 186.336 349.479 187.105 349.767 188.74C350.632 189.797 351.017 191.816 351.305 193.451C351.402 194.412 352.171 195.951 352.555 196.72ZM399.542 170.761C398.965 173.453 398.1 176.914 395.504 179.126C395.12 179.51 393.485 181.529 392.524 182.394C391.37 183.356 389.063 185.856 387.909 186.721C386.659 187.49 383.582 189.99 382.813 190.47C381.948 191.143 380.698 192.393 378.391 193.451C376.083 194.605 373.391 196.047 372.718 196.335C371.372 197.008 369.449 198.066 367.719 198.066C367.334 199.412 367.334 199.7 367.142 200.662C366.95 201.911 366.181 203.546 365.892 205.18C365.411 206.911 364.931 207.872 364.258 210.276C363.585 212.776 363.681 212.487 363.392 213.833C363.008 215.275 362.431 215.948 362.239 216.717C362.046 217.39 361.373 218.544 361.277 219.217C361.085 219.89 360.124 220.852 359.835 221.236C359.643 221.813 358.585 222.198 358.585 222.198C357.047 222.198 356.47 221.044 355.316 220.467L353.97 219.217C353.97 219.217 353.009 217.871 352.721 217.583C352.336 217.39 352.144 215.564 351.951 215.179C352.048 214.602 351.567 212.776 352.721 208.545L353.297 204.507L354.067 200.565C354.067 198.546 354.643 196.335 355.22 193.932C355.413 192.97 355.989 190.663 356.374 190.086C356.566 189.605 356.855 187.105 357.239 186.144C357.528 185.086 358.008 183.067 357.912 182.394L358.681 177.491L359.354 175.857C359.162 175.568 359.066 175.28 358.874 175.088C358.585 174.607 358.585 173.934 358.201 173.742C358.008 173.261 357.72 172.876 357.912 172.203C358.105 171.819 358.297 171.53 358.681 171.242C359.066 170.857 360.027 169.992 360.412 169.607C360.604 169.223 362.431 167.877 362.623 167.588C362.912 167.3 364.258 166.339 364.546 166.146C364.931 165.858 368.969 163.935 369.161 163.55C370.411 162.589 372.526 162.204 373.872 161.531C374.545 161.243 376.564 160.57 377.333 160.185C378.102 159.897 379.352 159.609 380.794 159.224C382.14 158.936 383.679 158.936 384.159 158.647C385.986 157.878 387.813 158.263 389.639 157.686C390.024 157.59 390.985 157.686 391.466 157.686C392.235 157.686 392.331 158.07 393.197 158.07C393.774 158.263 394.35 158.743 394.35 158.743C394.35 158.743 396.466 161.916 396.658 162.012C396.946 162.204 398.004 163.358 398.004 163.358L399.061 164.704L399.638 166.146L399.542 168.454V170.761ZM370.026 186.817C370.892 186.432 372.526 185.759 372.622 185.663C373.007 185.375 375.795 183.837 376.564 183.164C379.352 181.048 380.987 180.087 383.294 178.068L385.505 175.761C387.14 172.78 388.486 171.53 389.063 170.569L386.178 171.146C386.178 171.146 384.063 171.53 383.198 171.626C382.429 171.915 381.275 172.203 380.506 172.492C379.544 172.78 378.583 173.069 378.006 173.453C377.141 173.742 376.66 173.934 376.083 174.415C375.41 174.799 374.064 175.472 373.584 175.761C373.103 176.145 371.853 176.914 371.661 176.914C371.372 179.895 370.603 182.875 370.026 186.817ZM419.604 206.526C426.43 209.987 419.796 212.295 415.181 215.756C414.7 216.141 408.451 220.755 408.451 220.755L404.701 222.678L401.336 223.736L398.26 223.159L395.183 221.813L393.453 220.852L392.107 219.89L390.857 218.063C390.953 215.852 390.857 214.602 390.953 214.218C391.049 213.833 391.434 210.468 391.626 209.891C392.107 207.488 391.818 204.988 392.395 202.584C392.588 202.008 392.684 201.046 392.876 200.373C392.972 199.892 392.78 198.258 392.876 197.873C392.972 197.393 393.645 192.97 394.895 190.086L396.145 186.144L396.818 184.413L398.26 178.741C398.26 178.741 399.125 176.049 399.606 175.184C399.894 174.415 401.048 172.107 401.048 172.107L403.548 166.146C403.548 166.146 404.028 164.993 404.894 164.223C405.951 163.358 408.643 161.724 408.643 161.724L412.874 159.897L419.411 157.397L421.815 156.724L427.68 157.013L429.026 157.974C429.026 157.974 430.083 158.647 430.179 159.224C430.948 161.051 432.102 165.185 426.622 167.012C426.622 167.012 425.564 167.492 424.795 167.781C424.122 167.877 422.296 168.646 422.296 168.646L417.585 170.953L415.662 171.819C414.412 172.588 413.066 173.261 411.816 173.838C411.431 174.799 410.758 177.491 410.855 178.164C410.855 178.549 410.47 180.087 410.182 181.145L411.431 180.568L416.815 178.453L419.507 177.876L421.623 178.453L424.988 179.51L426.334 181.337L426.141 183.26L425.276 185.471L423.545 186.913L419.796 188.644L418.161 189.413L415.085 190.759L412.777 192.009L409.893 193.643C408.836 194.124 407.778 194.701 406.817 195.566C406.72 196.624 406.144 199.604 406.144 199.604C406.144 199.604 405.374 203.161 405.182 203.834C405.086 204.507 404.317 206.815 404.413 210.66L406.913 209.122C410.085 207.488 411.624 206.911 412.297 206.622C413.739 206.142 414.989 206.238 416.335 206.142C417.585 205.949 418.546 206.526 419.604 206.526ZM458.365 205.661C459.903 206.526 459.615 207.68 460.576 209.122C461.345 211.43 459.134 212.583 456.923 214.41C456.442 214.602 454.904 215.275 454.327 215.756C452.596 216.717 451.058 217.487 449.328 218.544C447.885 219.217 446.155 220.082 444.713 220.852C444.328 221.14 443.174 221.717 442.79 221.717C441.732 221.717 440.675 222.005 439.617 222.005C439.136 222.005 438.463 221.813 438.175 221.717C437.214 221.717 436.06 221.044 435.387 220.563C435.098 220.467 434.137 220.082 433.849 220.082C433.56 219.89 432.599 219.506 432.31 219.409C431.926 219.409 429.426 218.256 429.138 217.871C428.657 217.198 427.022 217.102 426.83 216.141C426.734 215.564 426.542 214.506 426.542 213.929C426.542 213.449 425.965 211.526 426.061 209.987C426.157 208.545 426.061 207.007 426.253 205.18C426.446 203.161 426.446 202.008 426.734 200.181C426.926 198.258 427.503 194.412 428.08 192.393C428.561 190.374 429.041 187.971 429.33 186.625C429.618 185.375 430.484 182.01 430.964 180.76C431.349 179.702 432.695 176.53 433.464 175.184C434.041 173.934 434.714 172.299 435.291 171.146C437.214 168.165 438.56 165.473 440.867 162.493C440.867 162.493 442.79 160.378 443.367 160.185C443.751 159.897 445.77 158.263 446.251 157.878C446.924 157.397 447.501 157.013 448.174 156.724C448.847 156.34 449.616 156.34 450.289 156.34C450.962 156.244 451.827 156.436 452.404 156.628C454.135 157.205 455.577 157.974 457.307 158.743C458.173 159.224 458.75 159.705 459.615 160.282C460.192 160.666 461.249 161.339 461.826 161.724C462.403 162.204 463.172 162.589 463.845 162.974C464.422 163.358 464.999 163.839 464.999 164.223C465.095 164.32 465.672 166.819 465.672 166.819C465.672 166.819 465.864 167.781 465.96 168.261C465.864 168.646 465.768 169.319 465.672 169.992C465.287 171.53 465.383 171.915 464.326 173.069C463.461 174.126 463.172 174.799 462.018 175.28C460.865 176.049 457.884 177.491 456.25 173.838C455.192 172.299 455.192 169.607 454.904 167.588C452.596 167.588 450.674 170.761 449.039 172.876C448.655 173.453 447.982 174.511 447.693 175.088C446.347 177.395 445.482 179.799 444.328 182.202C443.367 184.413 442.982 186.625 442.213 188.836C442.021 189.797 441.348 193.643 441.155 194.701C441.059 195.758 440.098 197.97 439.906 198.739C439.906 199.412 439.425 200.565 439.233 201.527C439.04 202.681 438.752 203.93 438.271 205.853C438.367 206.238 438.175 210.564 438.175 210.564L441.444 210.276L443.559 209.507L450.481 206.622C450.481 206.622 455.865 205.276 456.154 205.276C456.442 205.276 458.077 205.565 458.365 205.661ZM507.641 165.185C506.968 165.473 506.391 166.242 505.622 166.531C504.084 167.781 502.738 167.3 501.2 168.165C500.719 168.261 496.008 169.319 495.335 169.511C495.046 169.511 494.181 169.8 493.604 169.992C493.316 171.242 493.22 172.107 493.027 172.876C492.931 173.165 492.066 177.876 491.874 178.549C491.874 179.126 491.105 182.202 490.912 182.779C490.912 183.356 489.278 189.317 489.278 189.317C489.278 189.317 488.509 192.009 488.316 193.259C488.028 194.412 486.778 199.989 486.682 200.181C486.682 200.373 486.201 203.354 486.201 203.354L485.624 205.853C485.624 205.853 484.663 208.93 484.567 209.507C484.471 209.891 484.182 211.814 484.182 211.814C484.182 211.814 484.086 213.833 483.798 214.795C483.702 215.564 483.605 215.564 483.413 216.429C482.932 217.583 482.356 218.544 481.875 219.698C481.394 220.179 481.202 220.371 480.913 220.563C480.529 221.044 479.375 221.236 478.894 221.236C478.702 221.236 478.029 221.14 477.548 221.044C477.356 220.852 476.587 220.755 476.202 220.563C475.914 220.563 475.145 219.89 474.76 219.794C474.472 219.506 472.549 218.736 472.549 218.736C471.684 217.775 470.722 216.814 470.818 216.429C470.915 216.141 470.242 214.122 470.338 213.737C470.818 211.622 471.203 208.545 471.684 206.526C471.972 206.238 472.068 204.988 472.164 204.603C472.645 202.296 473.414 200.565 473.703 198.931C474.183 197.104 474.856 195.662 474.76 193.932C474.76 193.932 475.241 192.009 475.337 191.72C475.337 191.432 475.914 189.413 476.202 189.028C477.164 184.798 478.221 181.145 479.087 177.395C479.087 177.395 479.471 175.568 479.567 175.184C479.664 174.895 479.856 173.934 480.048 173.453C478.125 174.222 473.703 175.857 472.453 174.415C472.261 174.222 471.588 174.126 471.203 173.838C470.722 173.453 469.953 173.261 469.761 173.069C469.472 172.588 468.992 172.492 468.607 172.107C468.319 171.819 468.03 171.53 467.838 171.146C467.646 170.473 467.357 168.934 468.223 168.261C468.511 167.973 469.376 167.012 470.242 166.339C471.876 164.896 473.703 164.32 475.241 163.262C476.683 162.685 478.125 162.012 479.567 161.531C479.664 161.531 481.106 160.955 481.394 160.858C481.683 160.57 483.029 160.282 483.317 160.185C483.894 159.993 485.624 159.32 485.624 159.32C485.624 159.32 489.182 158.07 489.47 157.974C489.759 157.878 490.432 157.59 490.624 157.59C491.97 157.59 493.22 157.301 494.181 156.917C494.758 156.724 496.008 156.244 496.2 156.051C496.777 155.955 497.835 155.667 498.123 155.667C498.604 155.571 500.046 155.09 501.103 154.994H503.699C504.565 155.667 505.526 157.397 505.718 157.59C505.911 157.686 507.257 159.705 507.641 160.858C507.641 160.858 508.026 161.531 508.218 161.916C508.41 162.204 508.506 162.685 508.699 162.974C508.699 163.839 508.41 164.608 507.641 165.185ZM538.347 176.914L537.001 185.375C537.001 185.375 533.059 198.066 532.963 198.546C532.867 199.027 528.829 207.007 528.829 207.007C528.829 207.007 525.848 210.468 525.271 211.237C524.695 211.91 523.06 213.545 522.772 213.929C522.387 214.506 521.137 215.852 520.849 216.429C520.56 216.814 518.734 218.833 516.426 220.371C516.426 220.371 514.888 221.236 514.119 221.428C513.446 221.525 512.484 221.525 512.1 221.525C511.619 221.525 509.985 221.14 509.696 221.044C509.408 220.852 508.158 220.179 507.485 220.179C506.812 220.179 505.081 219.409 504.601 219.121C503.928 218.929 502.678 218.256 502.293 218.16C501.813 218.063 500.274 217.198 500.274 217.198L498.736 216.717L497.582 215.564C497.582 215.564 495.852 211.91 495.659 211.43C495.659 210.949 495.083 209.795 494.89 208.93C494.698 207.968 494.602 206.622 494.602 206.142C494.698 205.373 494.602 203.257 494.794 201.911C494.89 200.565 494.986 198.739 495.179 197.585C495.371 196.335 495.756 194.893 496.044 193.739C496.236 192.682 496.909 190.086 497.198 189.124C497.294 188.163 497.967 185.663 498.351 184.413C498.832 183.164 499.89 180.472 500.851 178.549C501.62 176.818 502.678 175.472 503.159 174.895C503.543 174.511 505.178 171.915 505.562 171.434C506.043 170.761 508.158 168.55 508.543 168.165C508.831 167.588 511.619 165.666 511.619 165.666L512.581 164.32C512.581 164.32 513.734 162.685 514.023 162.301C514.311 161.916 516.619 160.282 516.619 160.282C516.619 160.282 520.657 157.59 521.041 157.686C521.522 157.878 525.656 157.878 525.656 157.878C525.656 157.878 528.829 158.263 529.406 158.263C529.79 158.263 531.905 159.609 531.905 159.609C531.905 159.609 535.751 163.935 535.943 164.32C536.232 164.608 537.866 169.319 537.962 170.28C538.155 171.146 538.347 176.914 538.347 176.914ZM524.598 184.317C525.752 182.394 525.944 180.472 526.425 178.26L526.714 173.838V170.953L524.406 172.107L523.349 172.78L519.791 174.222L518.83 175.28L517.195 176.914L513.734 181.818L512.484 184.317C512.484 184.317 511.523 186.817 511.235 187.49C510.273 189.797 509.985 192.009 509.216 194.412C509.023 196.239 508.639 197.873 508.543 199.989L507.773 205.373L508.35 209.314C510.754 208.93 512.292 207.872 512.773 207.295C513.254 206.815 514.215 205.661 514.792 204.892C516.042 202.969 517.676 200.854 518.541 198.546C518.926 197.873 520.56 194.989 520.56 194.989C520.56 194.989 522.099 192.586 522.195 191.336C522.483 190.086 524.598 184.317 524.598 184.317ZM582.692 166.242C583.749 167.588 583.557 169.127 583.173 171.242L582.307 173.165L581.634 174.222C581.634 174.222 580.288 175.568 580.096 175.857C579.711 176.241 578.173 178.164 577.885 178.26C577.5 178.549 572.116 182.394 571.155 182.875C570.289 183.356 566.155 185.759 565.482 186.048C564.905 186.336 562.31 187.778 560.483 188.451C560.675 189.317 561.925 192.393 562.213 192.778C562.694 193.259 563.175 194.412 563.656 194.989C563.944 195.566 565.002 196.912 565.002 196.912C565.002 196.912 565.386 197.297 565.675 197.873C565.867 198.066 565.963 198.354 566.059 198.546C566.059 198.931 567.021 200.854 567.213 201.238C567.501 201.623 567.79 203.257 567.79 203.257C567.79 203.257 568.847 205.18 569.136 205.949C569.616 206.622 569.905 207.584 570.386 208.545C570.674 209.507 570.866 209.891 571.059 210.276C571.347 210.853 571.443 211.814 571.635 212.295C571.828 212.872 572.02 213.545 572.212 213.929C572.308 214.41 572.308 215.275 572.501 215.756C572.597 216.141 572.405 217.39 572.308 217.775C571.828 218.544 571.732 218.929 570.674 218.929C570.097 219.121 568.751 218.929 567.597 217.871L565.578 215.564L564.521 214.218C564.521 214.218 561.637 210.853 561.54 210.468C561.348 209.987 560.002 207.968 560.002 207.968L557.118 203.354C557.118 203.354 555.868 201.335 555.676 200.95C555.483 200.565 553.945 198.258 553.945 198.258L550.58 192.778C550.58 192.778 549.907 194.316 547.6 204.507L545.485 214.218C545.485 214.218 545.196 216.237 545.1 216.717C544.619 219.121 543.081 222.005 538.755 219.794C538.755 219.794 537.505 219.217 537.312 218.929C537.12 218.736 535.39 217.487 534.428 214.602L534.332 213.256V209.891L535.293 205.276C535.774 203.546 536.063 200.854 535.966 200.565C536.063 200.277 536.447 197.008 536.447 197.008C536.447 197.008 536.736 194.989 536.736 194.893C537.024 193.643 537.312 192.297 538.082 189.124C538.178 188.74 538.947 185.375 539.139 185.086C539.524 183.452 540.004 181.818 540.581 179.51C541.062 177.491 541.639 175.28 542.312 173.165C542.216 172.588 542.12 171.626 542.12 171.146C541.639 170.184 541.831 169.8 542.023 168.646C542.216 167.973 543.081 167.012 543.081 167.012C544.812 165.666 547.311 163.743 547.6 163.454C550.196 162.108 553.272 161.435 556.06 160.474C556.541 160.282 558.272 159.801 558.945 159.512C559.521 159.128 560.194 158.936 561.444 158.743C562.502 158.551 563.848 158.166 565.098 157.782C566.348 157.301 567.79 156.917 568.559 156.917C569.424 156.917 570.578 156.917 571.251 156.917C572.02 157.109 573.462 157.109 573.751 157.301C574.327 157.59 575.673 157.878 576.346 157.878C577.5 157.878 578.558 158.936 579.327 159.897C579.327 160.185 579.904 160.762 580.096 160.955C580.288 161.724 580.865 163.358 581.154 163.935C581.346 164.32 581.634 164.896 581.827 165.185C582.019 165.569 582.5 165.954 582.692 166.242ZM572.308 171.53C573.078 171.242 575.097 169.511 575.097 169.511C573.558 168.934 571.635 169.223 569.905 168.838C569.232 168.838 568.078 168.838 567.694 168.838C564.136 168.838 560.194 171.146 556.637 172.78C556.06 173.261 555.003 173.838 554.041 173.838C554.137 174.607 553.945 175.761 553.849 176.049C553.849 177.491 553.08 179.126 553.08 180.568C553.561 180.472 554.234 180.087 554.714 179.895C557.118 179.222 559.233 178.26 561.444 177.203C563.367 176.241 565.194 175.28 567.117 174.511C568.847 173.549 570.578 172.492 572.308 171.53Z" fill="#1E1E1E"/>
<path d="M324.695 142.231C306.502 142.231 291.627 136.536 280.07 125.144C268.513 113.698 262.735 99.0168 262.735 81.1007C262.735 62.9082 268.624 48.1163 280.402 36.7252C292.236 25.3342 307.11 19.6386 325.026 19.6386C331.22 19.6386 336.86 20.3022 341.947 21.6293C347.09 22.9011 351.762 24.7259 355.965 27.1036C360.223 29.4814 363.872 32.0803 366.914 34.9005C369.442 37.1989 369.651 41.1033 367.383 43.6587L355.015 57.5933C353.661 59.1184 351.284 59.1343 349.91 57.6273C348.196 55.7473 346.15 54.0884 343.772 52.6507C341.394 51.1576 338.74 49.9688 335.809 49.084C332.879 48.144 329.478 47.674 325.607 47.674C316.538 47.674 308.907 50.7706 302.714 56.9638C296.521 63.1017 293.424 71.1474 293.424 81.1007C293.424 90.7776 296.41 98.7127 302.383 104.906C308.41 111.044 316.096 114.113 325.441 114.113C329.478 114.113 333.072 113.643 336.224 112.703C339.431 111.763 342.251 110.463 344.684 108.804C347.173 107.145 349.246 105.348 350.905 103.413C352.255 101.838 354.652 101.726 356.143 103.167L368.57 115.182C371.256 117.779 371.403 122.036 368.904 124.813C365.918 128.13 362.241 131.144 357.873 133.854C353.559 136.508 348.638 138.582 343.108 140.075C337.634 141.512 331.496 142.231 324.695 142.231Z" fill="#1E1E1E"/>
<path d="M427.1 142.231C418.529 142.231 411.12 141.208 404.871 139.162C398.678 137.116 393.452 134.158 389.195 130.287C384.937 126.361 381.73 122.131 379.573 117.596C377.877 113.891 379.71 109.527 383.545 108.146L396.832 103.359C399.226 102.496 401.882 103.598 402.963 105.901C404.291 108.555 406.088 110.933 408.355 113.035C410.622 115.08 413.359 116.712 416.566 117.928C419.774 119.145 423.423 119.753 427.515 119.753C432.768 119.753 436.916 118.592 439.957 116.269C443.054 113.947 444.602 110.684 444.602 106.482C444.602 102.335 442.805 99.1274 439.21 96.8603C435.671 94.5931 428.649 91.9942 418.142 89.0634C404.761 85.4139 395.36 80.686 389.941 74.8799C384.522 69.0737 381.813 62.0234 381.813 53.7289C381.813 43.7203 385.822 35.5364 393.84 29.1773C401.913 22.8182 412.64 19.6386 426.022 19.6386C433.487 19.6386 439.874 20.4957 445.182 22.2099C450.491 23.8688 455.163 26.4401 459.2 29.9238C463.292 33.4075 466.361 37.057 468.407 40.8725C470.07 43.8927 468.672 47.6858 465.446 48.9039L451.39 54.2119C449.327 54.9909 447.002 54.1968 445.846 52.3189C444.519 50.107 442.915 48.1716 441.035 46.5127C439.155 44.8538 437.054 43.6373 434.731 42.8632C432.409 42.0337 429.672 41.619 426.52 41.619C421.764 41.619 417.894 42.5867 414.908 44.5221C411.922 46.4574 410.429 49.1117 410.429 52.4848C410.429 55.6367 412.032 58.2909 415.239 60.4475C418.502 62.604 425.912 65.3136 437.469 68.5761C450.629 72.2256 459.919 77.0917 465.338 83.1744C470.812 89.2017 473.55 96.6944 473.55 105.652C473.55 116.933 469.236 125.863 460.61 132.444C451.984 138.969 440.814 142.231 427.1 142.231Z" fill="#1E1E1E"/>
<path d="M529.971 142.231C521.4 142.231 513.991 141.208 507.742 139.162C501.549 137.116 496.323 134.158 492.066 130.287C487.808 126.361 484.601 122.131 482.444 117.596C480.748 113.891 482.581 109.527 486.416 108.146L499.703 103.359C502.097 102.496 504.753 103.598 505.834 105.901C507.162 108.555 508.959 110.933 511.226 113.035C513.493 115.08 516.23 116.712 519.437 117.928C522.645 119.145 526.294 119.753 530.386 119.753C535.639 119.753 539.787 118.592 542.828 116.269C545.924 113.947 547.473 110.684 547.473 106.482C547.473 102.335 545.676 99.1274 542.081 96.8603C538.542 94.5931 531.52 91.9942 521.013 89.0634C507.632 85.4139 498.231 80.686 492.812 74.8799C487.393 69.0737 484.684 62.0234 484.684 53.7289C484.684 43.7203 488.693 35.5364 496.711 29.1773C504.784 22.8182 515.511 19.6386 528.893 19.6386C536.358 19.6386 542.745 20.4957 548.053 22.2099C553.362 23.8688 558.034 26.4401 562.071 29.9238C566.163 33.4075 569.232 37.057 571.278 40.8725C572.941 43.8927 571.543 47.6858 568.317 48.9039L554.261 54.2119C552.198 54.9909 549.873 54.1968 548.717 52.3189C547.39 50.107 545.786 48.1716 543.906 46.5127C542.026 44.8538 539.925 43.6373 537.602 42.8632C535.28 42.0337 532.543 41.619 529.391 41.619C524.635 41.619 520.765 42.5867 517.779 44.5221C514.793 46.4574 513.3 49.1117 513.3 52.4848C513.3 55.6367 514.903 58.2909 518.11 60.4475C521.373 62.604 528.783 65.3136 540.34 68.5761C553.5 72.2256 562.79 77.0917 568.209 83.1744C573.683 89.2017 576.421 96.6944 576.421 105.652C576.421 116.933 572.107 125.863 563.481 132.444C554.855 138.969 543.685 142.231 529.971 142.231Z" fill="#1E1E1E"/>
<defs>
<filter id="filter0_d_395_4189" x="112.671" y="127.208" width="139.038" height="131.643" filterUnits="userSpaceOnUse" color-interpolation-filters="sRGB">
<feFlood flood-opacity="0" result="BackgroundImageFix"/>
<feColorMatrix in="SourceAlpha" type="matrix" values="0 0 0 0 0 0 0 0 0 0 0 0 0 0 0 0 0 0 127 0" result="hardAlpha"/>
<feOffset dx="-10" dy="-7"/>
<feGaussianBlur stdDeviation="14"/>
<feComposite in2="hardAlpha" operator="out"/>
<feColorMatrix type="matrix" values="0 0 0 0 0 0 0 0 0 0 0 0 0 0 0 0 0 0 0.3 0"/>
<feBlend mode="normal" in2="BackgroundImageFix" result="effect1_dropShadow_395_4189"/>
<feBlend mode="normal" in="SourceGraphic" in2="effect1_dropShadow_395_4189" result="shape"/>
</filter>
<clipPath id="clip0_395_4189">
<rect width="229" height="229" fill="white" transform="translate(4 12.8078)"/>
</clipPath>
</defs>
</svg>
